<svg width="28" height="28" viewBox="0 0 28 28" fill="none" xmlns="http://www.w3.org/2000/svg">
<path d="M8.16671 2.33334H19.8334C20.4522 2.33334 21.0457 2.57918 21.4833 3.01676C21.9209 3.45435 22.1667 4.04784 22.1667 4.66668V23.3333C22.1667 23.9522 21.9209 24.5457 21.4833 24.9833C21.0457 25.4208 20.4522 25.6667 19.8334 25.6667H8.16671C7.54787 25.6667 6.95438 25.4208 6.51679 24.9833C6.07921 24.5457 5.83337 23.9522 5.83337 23.3333V4.66668C5.83337 4.04784 6.07921 3.45435 6.51679 3.01676C6.95438 2.57918 7.54787 2.33334 8.16671 2.33334ZM8.16671 4.66668V9.33334H19.8334V4.66668H8.16671ZM8.16671 11.6667V14H10.5V11.6667H8.16671ZM12.8334 11.6667V14H15.1667V11.6667H12.8334ZM17.5 11.6667V14H19.8334V11.6667H17.5ZM8.16671 16.3333V18.6667H10.5V16.3333H8.16671ZM12.8334 16.3333V18.6667H15.1667V16.3333H12.8334ZM17.5 16.3333V18.6667H19.8334V16.3333H17.5ZM8.16671 21V23.3333H10.5V21H8.16671ZM12.8334 21V23.3333H15.1667V21H12.8334ZM17.5 21V23.3333H19.8334V21H17.5Z" fill="#869198"/>
</svg>
