<svg width="456" height="173" viewBox="0 0 456 173" fill="none" xmlns="http://www.w3.org/2000/svg">
<path d="M265.556 57.75C266.202 57.2745 266.712 56.6368 267.034 55.9014C267.355 55.1659 267.477 54.3587 267.387 53.5611C267.296 52.7635 266.997 52.0039 266.52 51.3588C266.042 50.7137 265.403 50.2059 264.667 49.8868V43.615L261 45.1733V49.8868C260.263 50.2058 259.623 50.7135 259.146 51.3588C258.668 52.0041 258.369 52.764 258.278 53.5619C258.188 54.3598 258.31 55.1673 258.632 55.903C258.954 56.6387 259.464 57.2764 260.111 57.7518C259.535 58.1746 259.067 58.7267 258.744 59.3636C258.421 60.0004 258.251 60.7043 258.25 61.4185V66C258.25 66.4862 258.443 66.9525 258.787 67.2964C259.131 67.6402 259.597 67.8333 260.083 67.8333H265.583C266.07 67.8333 266.536 67.6402 266.88 67.2964C267.223 66.9525 267.417 66.4862 267.417 66V61.4167C267.415 60.7025 267.246 59.9986 266.923 59.3618C266.6 58.7249 266.131 58.1728 265.556 57.75ZM255.5 47.5017V61.0683C255.51 62.6455 255.109 64.1981 254.338 65.5737C253.567 66.9494 252.451 68.1008 251.1 68.915C244.09 73.0091 236.118 75.1665 228 75.1665C219.882 75.1665 211.91 73.0091 204.9 68.915C203.549 68.1008 202.433 66.9494 201.662 65.5737C200.89 64.1981 200.49 62.6455 200.5 61.0683V47.5017L222.995 57.0167C224.58 57.6822 226.281 58.025 228 58.025C229.719 58.025 231.42 57.6822 233.005 57.0167L255.5 47.5017Z" fill="#00FF66"/>
<path d="M268.399 27.9345L231.571 12.3512C230.44 11.8751 229.224 11.6298 227.996 11.6298C226.768 11.6298 225.553 11.8751 224.421 12.3512L187.593 27.9345C186.598 28.3555 185.749 29.0605 185.151 29.9614C184.554 30.8623 184.236 31.9192 184.236 33C184.236 34.0808 184.554 35.1377 185.151 36.0386C185.749 36.9395 186.598 37.6444 187.593 38.0655L224.421 53.6488C225.553 54.1254 226.768 54.3709 227.996 54.3709C229.224 54.3709 230.44 54.1254 231.571 53.6488L268.399 38.0655C269.395 37.6444 270.244 36.9395 270.841 36.0386C271.438 35.1377 271.757 34.0808 271.757 33C271.757 31.9192 271.438 30.8623 270.841 29.9614C270.244 29.0605 269.395 28.3555 268.399 27.9345Z" fill="#00FF66"/>
<path d="M36.4504 139.093V172.663H29.7447V150.828L20.7877 172.663H15.7106L6.70572 150.828V172.663H0V139.093H7.61579L18.2491 164.054L28.8825 139.093H36.4504Z" fill="#F9F9F9"/>
<path d="M49.7859 144.528V152.944H61.0419V158.283H49.7859V167.181H62.4789V172.663H43.0802V139.045H62.4789V144.528H49.7859ZM57.7848 132.119L46.7683 137.169V132.36L57.7848 126.637V132.119Z" fill="#F9F9F9"/>
<path d="M80.2599 139.093C83.7724 139.093 86.8538 139.783 89.5042 141.161C92.1865 142.54 94.2461 144.512 95.683 147.077C97.1519 149.61 97.8863 152.56 97.8863 155.926C97.8863 159.293 97.1519 162.243 95.683 164.776C94.2461 167.277 92.1865 169.217 89.5042 170.595C86.8538 171.974 83.7724 172.663 80.2599 172.663H68.5727V139.093H80.2599ZM80.0204 166.94C83.5329 166.94 86.2471 165.978 88.163 164.054C90.079 162.131 91.0369 159.421 91.0369 155.926C91.0369 152.431 90.079 149.706 88.163 147.75C86.2471 145.762 83.5329 144.768 80.0204 144.768H75.2785V166.94H80.0204Z" fill="#F9F9F9"/>
<path d="M109.612 139.093V172.663H102.906V139.093H109.612Z" fill="#F9F9F9"/>
<path d="M136.737 166.267H123.422L121.218 172.663H114.177L126.2 139.045H134.007L146.029 172.663H138.941L136.737 166.267ZM134.917 160.88L130.079 146.836L125.242 160.88H134.917Z" fill="#F9F9F9"/>
<path d="M162.067 173C159.736 173 157.628 172.599 155.744 171.798C153.892 170.996 152.423 169.842 151.338 168.335C150.252 166.828 149.693 165.048 149.661 162.996H156.846C156.942 164.375 157.421 165.465 158.283 166.267C159.177 167.068 160.39 167.469 161.923 167.469C163.488 167.469 164.717 167.1 165.611 166.363C166.505 165.593 166.952 164.599 166.952 163.381C166.952 162.387 166.649 161.569 166.042 160.928C165.436 160.287 164.669 159.79 163.743 159.437C162.849 159.053 161.604 158.636 160.007 158.187C157.836 157.546 156.063 156.92 154.69 156.311C153.349 155.67 152.184 154.724 151.194 153.474C150.236 152.191 149.757 150.492 149.757 148.375C149.757 146.388 150.252 144.656 151.242 143.181C152.232 141.706 153.621 140.584 155.409 139.815C157.197 139.013 159.241 138.612 161.54 138.612C164.988 138.612 167.783 139.462 169.922 141.161C172.093 142.829 173.291 145.169 173.514 148.183H166.138C166.074 147.029 165.579 146.083 164.653 145.345C163.759 144.576 162.562 144.191 161.061 144.191C159.752 144.191 158.698 144.528 157.9 145.201C157.133 145.875 156.75 146.852 156.75 148.135C156.75 149.033 157.037 149.786 157.612 150.395C158.219 150.973 158.953 151.454 159.815 151.838C160.71 152.191 161.955 152.608 163.552 153.089C165.723 153.73 167.495 154.371 168.868 155.013C170.241 155.654 171.423 156.616 172.413 157.898C173.403 159.181 173.897 160.864 173.897 162.948C173.897 164.744 173.434 166.411 172.508 167.95C171.582 169.489 170.225 170.724 168.437 171.653C166.649 172.551 164.525 173 162.067 173Z" fill="#F9F9F9"/>
<path d="M197.83 144.528V152.944H209.086V158.283H197.83V167.181H210.523V172.663H191.124V139.045H210.523V144.528H197.83Z" fill="#F9F9F9"/>
<path d="M228.16 173C225.829 173 223.722 172.599 221.838 171.798C219.986 170.996 218.517 169.842 217.431 168.335C216.345 166.828 215.787 165.048 215.755 162.996H222.939C223.035 164.375 223.514 165.465 224.376 166.267C225.27 167.068 226.484 167.469 228.017 167.469C229.581 167.469 230.811 167.1 231.705 166.363C232.599 165.593 233.046 164.599 233.046 163.381C233.046 162.387 232.743 161.569 232.136 160.928C231.529 160.287 230.763 159.79 229.837 159.437C228.943 159.053 227.697 158.636 226.101 158.187C223.929 157.546 222.157 156.92 220.784 156.311C219.443 155.67 218.277 154.724 217.287 153.474C216.33 152.191 215.851 150.492 215.851 148.375C215.851 146.388 216.346 144.656 217.335 143.181C218.325 141.706 219.714 140.584 221.503 139.815C223.291 139.013 225.334 138.612 227.633 138.612C231.082 138.612 233.876 139.462 236.016 141.161C238.187 142.829 239.384 145.169 239.608 148.183H232.232C232.168 147.029 231.673 146.083 230.747 145.345C229.853 144.576 228.655 144.191 227.154 144.191C225.845 144.191 224.792 144.528 223.993 145.201C223.227 145.875 222.844 146.852 222.844 148.135C222.844 149.033 223.131 149.786 223.706 150.395C224.313 150.973 225.047 151.454 225.909 151.838C226.803 152.191 228.049 152.608 229.645 153.089C231.817 153.73 233.589 154.371 234.962 155.013C236.335 155.654 237.516 156.616 238.506 157.898C239.496 159.181 239.991 160.864 239.991 162.948C239.991 164.744 239.528 166.411 238.602 167.95C237.676 169.489 236.319 170.724 234.531 171.653C232.743 172.551 230.619 173 228.16 173Z" fill="#F9F9F9"/>
<path d="M244.176 155.83C244.176 152.528 244.911 149.578 246.38 146.981C247.88 144.352 249.908 142.316 252.463 140.873C255.049 139.398 257.939 138.66 261.132 138.66C264.868 138.66 268.141 139.622 270.951 141.546C273.761 143.47 275.725 146.131 276.843 149.53H269.131C268.365 147.927 267.279 146.724 265.874 145.923C264.501 145.121 262.904 144.72 261.084 144.72C259.136 144.72 257.396 145.185 255.863 146.115C254.363 147.013 253.181 148.295 252.319 149.963C251.489 151.63 251.074 153.586 251.074 155.83C251.074 158.043 251.489 159.998 252.319 161.698C253.181 163.365 254.363 164.664 255.863 165.593C257.396 166.491 259.136 166.94 261.084 166.94C262.904 166.94 264.501 166.539 265.874 165.738C267.279 164.904 268.365 163.686 269.131 162.082H276.843C275.725 165.513 273.761 168.191 270.951 170.114C268.173 172.006 264.9 172.952 261.132 172.952C257.939 172.952 255.049 172.23 252.463 170.788C249.908 169.313 247.88 167.277 246.38 164.68C244.911 162.082 244.176 159.133 244.176 155.83Z" fill="#F9F9F9"/>
<path d="M298.089 173C294.96 173 292.086 172.263 289.468 170.788C286.849 169.313 284.774 167.277 283.241 164.68C281.708 162.05 280.942 159.085 280.942 155.782C280.942 152.512 281.708 149.578 283.241 146.981C284.774 144.352 286.849 142.299 289.468 140.825C292.086 139.35 294.96 138.612 298.089 138.612C301.25 138.612 304.124 139.35 306.711 140.825C309.329 142.299 311.389 144.352 312.89 146.981C314.422 149.578 315.189 152.512 315.189 155.782C315.189 159.085 314.422 162.05 312.89 164.68C311.389 167.277 309.329 169.313 306.711 170.788C304.092 172.263 301.219 173 298.089 173ZM298.089 166.988C300.101 166.988 301.873 166.539 303.406 165.641C304.939 164.712 306.136 163.397 306.998 161.698C307.86 159.998 308.291 158.026 308.291 155.782C308.291 153.538 307.86 151.582 306.998 149.915C306.136 148.215 304.939 146.917 303.406 146.019C301.873 145.121 300.101 144.672 298.089 144.672C296.077 144.672 294.289 145.121 292.725 146.019C291.192 146.917 289.994 148.215 289.132 149.915C288.27 151.582 287.839 153.538 287.839 155.782C287.839 158.026 288.27 159.998 289.132 161.698C289.994 163.397 291.192 164.712 292.725 165.641C294.289 166.539 296.077 166.988 298.089 166.988Z" fill="#F9F9F9"/>
<path d="M326.883 167.325H337.9V172.663H320.178V139.093H326.883V167.325Z" fill="#F9F9F9"/>
<path d="M362.662 166.267H349.347L347.144 172.663H340.103L352.125 139.045H359.932L371.955 172.663H364.866L362.662 166.267ZM360.842 160.88L356.005 146.836L351.167 160.88H360.842Z" fill="#F9F9F9"/>
<path d="M393.692 172.663L386.315 159.582H383.154V172.663H376.448V139.093H388.998C391.584 139.093 393.788 139.558 395.608 140.488C397.428 141.386 398.785 142.62 399.679 144.191C400.605 145.73 401.068 147.462 401.068 149.385C401.068 151.598 400.429 153.602 399.152 155.397C397.875 157.161 395.975 158.379 393.452 159.053L401.451 172.663H393.692ZM383.154 154.532H388.758C390.578 154.532 391.936 154.099 392.83 153.233C393.724 152.335 394.171 151.101 394.171 149.53C394.171 147.991 393.724 146.804 392.83 145.971C391.936 145.105 390.578 144.672 388.758 144.672H383.154V154.532Z" fill="#F9F9F9"/>
<path d="M413.839 144.528V152.944H425.095V158.283H413.839V167.181H426.532V172.663H407.133V139.045H426.532V144.528H413.839Z" fill="#F9F9F9"/>
<path d="M444.169 173C441.838 173 439.731 172.599 437.847 171.798C435.995 170.996 434.526 169.842 433.44 168.335C432.354 166.828 431.796 165.048 431.764 162.996H438.948C439.044 164.375 439.523 165.465 440.385 166.267C441.279 167.068 442.493 167.469 444.026 167.469C445.59 167.469 446.82 167.1 447.714 166.363C448.608 165.593 449.055 164.599 449.055 163.381C449.055 162.387 448.751 161.569 448.145 160.928C447.538 160.287 446.772 159.79 445.846 159.437C444.952 159.053 443.706 158.636 442.11 158.187C439.938 157.546 438.166 156.92 436.793 156.311C435.452 155.67 434.286 154.724 433.296 153.474C432.338 152.191 431.859 150.492 431.859 148.375C431.859 146.388 432.354 144.656 433.344 143.181C434.334 141.706 435.723 140.584 437.511 139.815C439.3 139.013 441.343 138.612 443.642 138.612C447.091 138.612 449.885 139.462 452.024 141.161C454.196 142.829 455.393 145.169 455.617 148.183H448.241C448.177 147.029 447.682 146.083 446.756 145.345C445.862 144.576 444.664 144.191 443.163 144.191C441.854 144.191 440.8 144.528 440.002 145.201C439.236 145.875 438.852 146.852 438.852 148.135C438.852 149.033 439.14 149.786 439.715 150.395C440.321 150.973 441.056 151.454 441.918 151.838C442.812 152.191 444.057 152.608 445.654 153.089C447.825 153.73 449.598 154.371 450.971 155.013C452.344 155.654 453.525 156.616 454.515 157.898C455.505 159.181 456 160.864 456 162.948C456 164.744 455.537 166.411 454.611 167.95C453.685 169.489 452.328 170.724 450.54 171.653C448.751 172.551 446.628 173 444.169 173Z" fill="#F9F9F9"/>
<path d="M78.7044 115.382C78.7044 113.202 79.2047 111.246 80.2052 109.515C81.2271 107.783 82.6001 106.437 84.3245 105.475C86.0701 104.492 87.9754 104 90.0403 104C92.4033 104 94.5001 104.588 96.3309 105.763C98.183 106.918 99.5241 108.564 100.354 110.701H95.9796C95.4049 109.526 94.6066 108.649 93.5847 108.072C92.5629 107.495 91.3814 107.206 90.0403 107.206C88.5714 107.206 87.2622 107.538 86.1127 108.2C84.9631 108.863 84.0584 109.814 83.3984 111.054C82.7598 112.294 82.4405 113.737 82.4405 115.382C82.4405 117.028 82.7598 118.471 83.3984 119.711C84.0584 120.951 84.9631 121.913 86.1127 122.597C87.2622 123.259 88.5714 123.591 90.0403 123.591C91.3814 123.591 92.5629 123.302 93.5847 122.725C94.6066 122.148 95.4049 121.271 95.9796 120.096H100.354C99.5241 122.233 98.183 123.879 96.3309 125.033C94.5001 126.188 92.4033 126.765 90.0403 126.765C87.9541 126.765 86.0488 126.284 84.3245 125.322C82.6001 124.339 81.2271 122.981 80.2052 121.25C79.2047 119.519 78.7044 117.563 78.7044 115.382Z" fill="#F9F9F9"/>
<path d="M117.995 122.02H108.703L107.106 126.572H103.306L111.257 104.257H115.472L123.423 126.572H119.591L117.995 122.02ZM116.973 119.038L113.365 108.681L109.724 119.038H116.973Z" fill="#F9F9F9"/>
<path d="M130.521 123.623H138.025V126.572H126.88V104.289H130.521V123.623Z" fill="#F9F9F9"/>
<path d="M139.855 115.382C139.855 113.202 140.356 111.246 141.356 109.515C142.378 107.783 143.751 106.437 145.476 105.475C147.221 104.492 149.126 104 151.191 104C153.554 104 155.651 104.588 157.482 105.763C159.334 106.918 160.675 108.564 161.505 110.701H157.131C156.556 109.526 155.758 108.649 154.736 108.072C153.714 107.495 152.532 107.206 151.191 107.206C149.722 107.206 148.413 107.538 147.264 108.2C146.114 108.863 145.209 109.814 144.549 111.054C143.911 112.294 143.592 113.737 143.592 115.382C143.592 117.028 143.911 118.471 144.549 119.711C145.209 120.951 146.114 121.913 147.264 122.597C148.413 123.259 149.722 123.591 151.191 123.591C152.532 123.591 153.714 123.302 154.736 122.725C155.758 122.148 156.556 121.271 157.131 120.096H161.505C160.675 122.233 159.334 123.879 157.482 125.033C155.651 126.188 153.554 126.765 151.191 126.765C149.105 126.765 147.2 126.284 145.476 125.322C143.751 124.339 142.378 122.981 141.356 121.25C140.356 119.519 139.855 117.563 139.855 115.382Z" fill="#F9F9F9"/>
<path d="M169.375 104.289V118.493C169.375 120.181 169.811 121.453 170.684 122.308C171.578 123.163 172.813 123.591 174.388 123.591C175.985 123.591 177.219 123.163 178.092 122.308C178.986 121.453 179.433 120.181 179.433 118.493V104.289H183.073V118.428C183.073 120.245 182.68 121.784 181.892 123.046C181.104 124.307 180.051 125.247 178.731 125.867C177.411 126.487 175.953 126.797 174.356 126.797C172.759 126.797 171.301 126.487 169.981 125.867C168.683 125.247 167.65 124.307 166.884 123.046C166.118 121.784 165.734 120.245 165.734 118.428V104.289H169.375Z" fill="#F9F9F9"/>
<path d="M191.453 123.623H198.957V126.572H187.813V104.289H191.453V123.623Z" fill="#F9F9F9"/>
<path d="M215.381 122.02H206.089L204.492 126.572H200.692L208.644 104.257H212.859L220.81 126.572H216.978L215.381 122.02ZM214.359 119.038L210.751 108.681L207.111 119.038H214.359Z" fill="#F9F9F9"/>
<path d="M231.515 104.289C233.878 104.289 235.943 104.748 237.71 105.667C239.498 106.565 240.871 107.869 241.829 109.579C242.809 111.268 243.298 113.245 243.298 115.511C243.298 117.776 242.809 119.743 241.829 121.41C240.871 123.078 239.498 124.36 237.71 125.258C235.943 126.134 233.878 126.572 231.515 126.572H224.267V104.289H231.515ZM231.515 123.591C234.112 123.591 236.103 122.885 237.487 121.474C238.87 120.064 239.562 118.076 239.562 115.511C239.562 112.924 238.87 110.904 237.487 109.451C236.103 107.997 234.112 107.27 231.515 107.27H227.907V123.591H231.515Z" fill="#F9F9F9"/>
<path d="M257.029 126.797C254.964 126.797 253.058 126.316 251.313 125.354C249.588 124.371 248.215 123.013 247.193 121.282C246.193 119.529 245.693 117.563 245.693 115.382C245.693 113.202 246.193 111.246 247.193 109.515C248.215 107.783 249.588 106.437 251.313 105.475C253.058 104.492 254.964 104 257.029 104C259.115 104 261.02 104.492 262.744 105.475C264.49 106.437 265.863 107.783 266.864 109.515C267.864 111.246 268.364 113.202 268.364 115.382C268.364 117.563 267.864 119.529 266.864 121.282C265.863 123.013 264.49 124.371 262.744 125.354C261.02 126.316 259.115 126.797 257.029 126.797ZM257.029 123.623C258.497 123.623 259.807 123.291 260.956 122.629C262.106 121.945 263 120.983 263.638 119.743C264.298 118.482 264.628 117.028 264.628 115.382C264.628 113.737 264.298 112.294 263.638 111.054C263 109.814 262.106 108.863 260.956 108.2C259.807 107.538 258.497 107.206 257.029 107.206C255.56 107.206 254.25 107.538 253.101 108.2C251.951 108.863 251.047 109.814 250.387 111.054C249.748 112.294 249.429 113.737 249.429 115.382C249.429 117.028 249.748 118.482 250.387 119.743C251.047 120.983 251.951 121.945 253.101 122.629C254.25 123.291 255.56 123.623 257.029 123.623Z" fill="#F9F9F9"/>
<path d="M283.474 126.572L278.365 117.659H275.587V126.572H271.947V104.289H279.61C281.313 104.289 282.75 104.588 283.921 105.186C285.113 105.785 285.997 106.586 286.571 107.591C287.167 108.596 287.465 109.718 287.465 110.958C287.465 112.411 287.04 113.737 286.188 114.934C285.358 116.109 284.07 116.911 282.324 117.338L287.817 126.572H283.474ZM275.587 114.741H279.61C280.973 114.741 281.994 114.399 282.676 113.715C283.378 113.031 283.729 112.112 283.729 110.958C283.729 109.803 283.389 108.906 282.708 108.264C282.026 107.602 280.994 107.27 279.61 107.27H275.587V114.741Z" fill="#F9F9F9"/>
<path d="M305.502 122.02H296.21L294.613 126.572H290.813L298.764 104.257H302.979L310.93 126.572H307.098L305.502 122.02ZM304.48 119.038L300.872 108.681L297.231 119.038H304.48Z" fill="#F9F9F9"/>
<path d="M329.931 104.289C332.294 104.289 334.359 104.748 336.126 105.667C337.914 106.565 339.287 107.869 340.245 109.579C341.224 111.268 341.714 113.245 341.714 115.511C341.714 117.776 341.224 119.743 340.245 121.41C339.287 123.078 337.914 124.36 336.126 125.258C334.359 126.134 332.294 126.572 329.931 126.572H322.682V104.289H329.931ZM329.931 123.591C332.528 123.591 334.518 122.885 335.902 121.474C337.286 120.064 337.978 118.076 337.978 115.511C337.978 112.924 337.286 110.904 335.902 109.451C334.518 107.997 332.528 107.27 329.931 107.27H326.322V123.591H329.931Z" fill="#F9F9F9"/>
<path d="M348.962 107.238V113.779H356.625V116.761H348.962V123.591H357.583V126.572H345.322V104.257H357.583V107.238H348.962Z" fill="#F9F9F9"/>
</svg>
